<svg width="24" height="24" viewBox="0 0 24 24" xmlns="http://www.w3.org/2000/svg" fill="none" stroke="currentColor" stroke-width="1.8" stroke-linecap="round" stroke-linejoin="round">
  <path d="M10.325 4.317a1.75 1.75 0 0 1 3.35 0l.285.955a1.75 1.75 0 0 0 2.592 1.044l.9-.52a1.75 1.75 0 0 1 2.39.636l.014.025a1.75 1.75 0 0 1-.636 2.39l-.9.52a1.75 1.75 0 0 0-1.043 2.592l.284.955a1.75 1.75 0 0 1-1.044 2.593l-.025.014a1.75 1.75 0 0 1-2.39-.637l-.52-.9a1.75 1.75 0 0 0-2.592-1.043l-.955.284a1.75 1.75 0 0 1-2.592-1.044l-.014-.025a1.75 1.75 0 0 1 .636-2.39l.9-.52a1.75 1.75 0 0 0 1.043-2.592l-.284-.955a1.75 1.75 0 0 1 1.044-2.593l.025-.014Z" />
  <path d="M12 15a3 3 0 1 0 0-6 3 3 0 0 0 0 6Z" />
</svg>
